<?xml version="1.0" encoding="iso-8859-1"?>
<!-- Generator: Adobe Illustrator 16.0.0, SVG Export Plug-In . SVG Version: 6.00 Build 0)  -->
<!DOCTYPE svg PUBLIC "-//W3C//DTD SVG 1.1//EN" "http://www.w3.org/Graphics/SVG/1.1/DTD/svg11.dtd">
<svg version="1.1" id="Layer_1" xmlns="http://www.w3.org/2000/svg" xmlns:xlink="http://www.w3.org/1999/xlink" x="0px" y="0px"
	 width="182px" height="54px" viewBox="0 0 182 54" style="enable-background:new 0 0 182 54;" xml:space="preserve">
<line style="fill:#EF4136;stroke:#EF4136;stroke-width:1.5;stroke-linecap:round;stroke-miterlimit:10;" x1="5.533" y1="44.625" x2="99.087" y2="44.625"/>
<line style="fill:#EF4136;stroke:#EF4136;stroke-width:1.5;stroke-linecap:round;stroke-miterlimit:10;" x1="116.074" y1="44.625" x2="170.33" y2="44.625"/>
<g>
	<path style="fill:#EF4136;" d="M124.271,26.706c0,1.729-0.186,3.28-0.561,4.655c-0.373,1.376-0.921,2.544-1.646,3.503
		c-0.725,0.96-1.623,1.697-2.69,2.217c-1.068,0.52-2.291,0.781-3.667,0.781c-0.585,0-1.127-0.06-1.625-0.178
		c-0.498-0.116-0.985-0.301-1.46-0.547c-0.476-0.25-0.948-0.564-1.416-0.945c-0.468-0.38-0.966-0.825-1.493-1.34v9.882
		c0,0.116-0.03,0.22-0.088,0.307c-0.059,0.089-0.154,0.16-0.285,0.22c-0.132,0.06-0.315,0.101-0.549,0.131
		c-0.233,0.029-0.535,0.044-0.9,0.044c-0.351,0-0.644-0.015-0.878-0.044c-0.235-0.03-0.42-0.071-0.56-0.131s-0.235-0.131-0.285-0.22
		c-0.052-0.087-0.078-0.19-0.078-0.307V17.133c0-0.131,0.022-0.237,0.067-0.317c0.043-0.08,0.131-0.148,0.263-0.208
		s0.3-0.099,0.505-0.122c0.205-0.021,0.453-0.032,0.746-0.032c0.307,0,0.56,0.012,0.757,0.032c0.198,0.023,0.363,0.063,0.495,0.122
		c0.132,0.06,0.223,0.128,0.275,0.208c0.051,0.08,0.076,0.187,0.076,0.317v2.659c0.601-0.615,1.178-1.149,1.735-1.604
		c0.556-0.454,1.116-0.829,1.68-1.129c0.563-0.3,1.141-0.528,1.733-0.684c0.593-0.151,1.22-0.229,1.878-0.229
		c1.435,0,2.656,0.276,3.667,0.835c1.01,0.556,1.833,1.316,2.47,2.282c0.637,0.965,1.101,2.092,1.395,3.372
		C124.125,23.916,124.271,25.273,124.271,26.706z M120.517,27.125c0-1.011-0.077-1.988-0.231-2.933
		c-0.155-0.944-0.42-1.779-0.796-2.514c-0.376-0.73-0.879-1.316-1.512-1.756c-0.634-0.439-1.422-0.659-2.364-0.659
		c-0.472,0-0.936,0.071-1.392,0.208c-0.458,0.14-0.921,0.359-1.392,0.659c-0.473,0.3-0.966,0.695-1.481,1.186
		c-0.516,0.49-1.06,1.097-1.634,1.813v7.858c1.001,1.215,1.952,2.146,2.849,2.79c0.899,0.645,1.842,0.966,2.829,0.966
		c0.912,0,1.696-0.221,2.352-0.66c0.655-0.437,1.186-1.021,1.591-1.756c0.405-0.73,0.704-1.551,0.894-2.457
		C120.421,28.961,120.517,28.046,120.517,27.125z"/>
	<path style="fill:#EF4136;" d="M131.899,36.894c0,0.119-0.03,0.217-0.087,0.298c-0.06,0.08-0.155,0.151-0.285,0.208
		c-0.132,0.059-0.315,0.104-0.55,0.133c-0.233,0.027-0.535,0.042-0.9,0.042c-0.351,0-0.643-0.015-0.878-0.042
		c-0.235-0.029-0.42-0.074-0.56-0.133c-0.14-0.057-0.235-0.128-0.285-0.208c-0.052-0.081-0.077-0.179-0.077-0.298V7.561
		c0-0.116,0.025-0.221,0.077-0.307c0.05-0.089,0.146-0.16,0.285-0.22s0.325-0.101,0.56-0.131c0.235-0.029,0.527-0.044,0.878-0.044
		c0.366,0,0.667,0.015,0.9,0.044c0.235,0.03,0.417,0.071,0.55,0.131c0.13,0.06,0.226,0.131,0.285,0.22
		c0.058,0.086,0.087,0.19,0.087,0.307V36.894z"/>
	<path style="fill:#EF4136;" d="M154.088,36.894c0,0.119-0.027,0.217-0.078,0.298c-0.052,0.08-0.143,0.151-0.274,0.208
		c-0.131,0.059-0.303,0.104-0.516,0.133c-0.212,0.027-0.473,0.042-0.78,0.042c-0.337,0-0.611-0.015-0.823-0.042
		c-0.212-0.029-0.38-0.074-0.505-0.133c-0.125-0.057-0.208-0.128-0.253-0.208c-0.044-0.081-0.065-0.179-0.065-0.298v-2.611
		c-1.128,1.245-2.24,2.151-3.338,2.722c-1.098,0.57-2.21,0.858-3.336,0.858c-1.318,0-2.427-0.22-3.328-0.659
		c-0.9-0.44-1.628-1.037-2.184-1.789c-0.557-0.755-0.955-1.634-1.197-2.635c-0.241-1.005-0.363-2.223-0.363-3.658V17.133
		c0-0.115,0.027-0.214,0.077-0.294c0.052-0.08,0.15-0.154,0.297-0.22c0.146-0.065,0.336-0.11,0.57-0.134
		c0.233-0.021,0.527-0.032,0.878-0.032c0.352,0,0.645,0.012,0.878,0.032c0.235,0.023,0.422,0.068,0.56,0.134
		c0.14,0.065,0.238,0.14,0.297,0.22c0.058,0.08,0.087,0.179,0.087,0.294v11.508c0,1.155,0.083,2.082,0.252,2.777
		c0.168,0.695,0.425,1.287,0.768,1.777c0.345,0.49,0.78,0.87,1.308,1.141c0.526,0.273,1.141,0.407,1.843,0.407
		c0.908,0,1.811-0.321,2.711-0.966c0.9-0.645,1.855-1.59,2.866-2.832V17.133c0-0.115,0.025-0.214,0.077-0.294
		c0.05-0.08,0.15-0.154,0.295-0.22c0.147-0.065,0.333-0.11,0.56-0.134c0.228-0.021,0.524-0.032,0.89-0.032
		c0.351,0,0.643,0.012,0.878,0.032c0.234,0.023,0.417,0.068,0.549,0.134c0.131,0.065,0.23,0.14,0.296,0.22
		c0.067,0.08,0.1,0.179,0.1,0.294V36.894z"/>
	<path style="fill:#EF4136;" d="M171.75,31.517c0,1.01-0.187,1.91-0.56,2.7s-0.903,1.456-1.591,1.997
		c-0.689,0.543-1.508,0.953-2.46,1.229c-0.951,0.279-1.998,0.419-3.139,0.419c-0.703,0-1.373-0.057-2.01-0.166
		c-0.636-0.11-1.208-0.25-1.713-0.416c-0.503-0.17-0.933-0.345-1.283-0.529c-0.352-0.181-0.608-0.348-0.768-0.493
		c-0.162-0.146-0.279-0.351-0.352-0.615c-0.073-0.264-0.11-0.62-0.11-1.075c0-0.276,0.015-0.511,0.044-0.701
		c0.028-0.19,0.065-0.345,0.11-0.464c0.043-0.115,0.105-0.198,0.186-0.252c0.081-0.051,0.172-0.074,0.275-0.074
		c0.161,0,0.398,0.098,0.713,0.294c0.315,0.199,0.703,0.416,1.165,0.647c0.46,0.235,1.005,0.452,1.635,0.647
		c0.628,0.199,1.354,0.298,2.173,0.298c0.615,0,1.171-0.065,1.668-0.196c0.498-0.134,0.93-0.327,1.295-0.582
		c0.367-0.256,0.648-0.583,0.845-0.978c0.198-0.396,0.297-0.865,0.297-1.405c0-0.556-0.143-1.025-0.428-1.405
		c-0.285-0.381-0.662-0.717-1.13-1.011c-0.469-0.291-0.997-0.553-1.582-0.778c-0.585-0.229-1.188-0.467-1.811-0.716
		c-0.622-0.247-1.23-0.529-1.823-0.844c-0.593-0.315-1.123-0.698-1.591-1.153c-0.47-0.454-0.845-0.995-1.13-1.625
		c-0.287-0.63-0.43-1.382-0.43-2.261c0-0.775,0.15-1.519,0.45-2.229c0.3-0.71,0.75-1.331,1.351-1.866
		c0.6-0.534,1.35-0.962,2.25-1.286c0.9-0.321,1.951-0.481,3.151-0.481c0.527,0,1.055,0.045,1.581,0.131
		c0.527,0.089,1.003,0.199,1.428,0.33s0.787,0.273,1.087,0.428c0.298,0.154,0.526,0.288,0.68,0.407
		c0.153,0.115,0.256,0.22,0.308,0.306c0.051,0.089,0.088,0.188,0.11,0.297c0.021,0.11,0.043,0.247,0.065,0.407
		s0.033,0.359,0.033,0.591c0,0.25-0.01,0.467-0.033,0.648c-0.022,0.184-0.06,0.332-0.11,0.451c-0.052,0.116-0.113,0.202-0.187,0.253
		c-0.073,0.051-0.153,0.077-0.241,0.077c-0.132,0-0.322-0.08-0.571-0.244c-0.25-0.16-0.572-0.332-0.967-0.514
		c-0.395-0.185-0.86-0.356-1.394-0.517c-0.535-0.161-1.146-0.241-1.833-0.241c-0.615,0-1.157,0.068-1.625,0.208
		c-0.469,0.14-0.853,0.336-1.153,0.592c-0.3,0.258-0.527,0.562-0.68,0.912c-0.154,0.351-0.23,0.733-0.23,1.141
		c0,0.573,0.146,1.052,0.438,1.438c0.292,0.389,0.673,0.73,1.143,1.021c0.468,0.294,1.002,0.556,1.603,0.79
		c0.6,0.235,1.211,0.476,1.833,0.726c0.621,0.249,1.236,0.525,1.843,0.835c0.608,0.306,1.146,0.68,1.615,1.12
		c0.468,0.439,0.845,0.965,1.131,1.58C171.607,29.936,171.75,30.666,171.75,31.517z"/>
</g>
<g>
	<g>
		<path style="fill:#153962;" d="M19.622,16.631c4.465,0,7.498,2.745,7.498,7.291c0,7.704-5.981,15.488-13.274,15.488
			c-4.506,0-7.497-2.87-7.497-7.621c0-3.975,1.393-7.537,3.974-10.57C12.862,18.393,16.058,16.631,19.622,16.631z M18.393,19.661
			c-3.646,0-6.022,7.868-6.022,12.577c0,2.418,0.737,4.181,2.704,4.181c3.605,0,5.941-7.785,5.941-12.497
			C21.015,21.507,20.359,19.661,18.393,19.661z"/>
		<path style="fill:#153962;" d="M37.355,21.138c0,0.817,0.41,1.558,1.065,2.374c1.762,2.131,3.564,4.056,3.564,7.048
			c0,4.917-4.506,8.726-9.463,8.726c-2.827,0-6.063-1.842-6.063-5.038c0-1.394,0.901-2.253,1.639-2.662
			c0.942,2.54,2.54,4.792,4.998,4.914c1.925,0,3.155-1.064,3.155-3.277c0-1.926-1.72-3.277-3.277-5.039
			c-1.065-1.269-1.639-2.867-1.639-4.466c0-5.282,5.326-7.579,10.038-7.579c1.475,0,2.09,0.288,2.335,1.23
			c0,0.819-0.369,1.557-1.599,2.418c-0.819-0.82-1.638-1.188-2.376-1.188C38.093,18.598,37.355,19.54,37.355,21.138z"/>
		<path style="fill:#153962;" d="M59.68,18.966c0,1.926-1.557,3.277-3.442,3.277c-0.819,0-1.188-0.041-1.925-0.041
			c-0.328,0-0.614,0-0.942,0.083c-0.409,1.967-0.901,4.177-1.475,6.349c-0.328,1.23-0.656,3.031-0.656,4.383
			c0.083,1.271,0.615,1.967,1.598,1.967c0.492,0,1.353-0.778,2.089-1.557c1.311-1.394,2.089-2.089,2.5-2.089
			c0.164,0,0.205,0.122,0.205,0.368c0,2.95-4.302,7.458-7.251,7.458c-3.401,0-4.752-2.051-4.752-5.327
			c0-0.82,0.123-1.679,0.246-2.541c0.41-2.415,0.533-3.113,1.352-6.513c0.901-3.44,1.844-7.662,1.844-10.036
			c0-0.778-0.082-1.435-0.451-2.255c1.721-0.983,3.114-1.352,4.425-1.352s2.008,0.778,2.008,2.008c0-0.124-0.205,1.843-0.983,5.859
			h1.721c1.229,0,2.499-0.083,3.893-0.288C59.68,18.803,59.68,18.883,59.68,18.966z"/>
		<path style="fill:#153962;" d="M76.8,32.568c0.573,1.021,0.492,2.293-0.246,3.235c-0.697,0.861-1.721,1.64-3.073,2.213
			c-2.048,0.942-4.179,1.394-6.473,1.394c-4.794,0-7.538-2.092-7.743-6.311s1.27-8.357,4.097-11.43
			c2.745-3.277,6.268-5.039,9.914-5.039c3.442,0,5.081,1.474,5.04,4.261c0,2.787-3.605,6.35-9.136,8.316
			c-1.311,0.451-3.974,1.64-4.015,2.703c-0.042,0.983,0.082,1.846,0.45,2.377c0.901,1.311,2.376,2.089,3.933,1.884
			C72.457,35.887,74.669,34.615,76.8,32.568z M65.574,29.124c0.697-1.515,1.925-2.047,3.441-2.867
			c2.622-1.432,3.359-2.783,3.77-4.219c0.409-1.435-0.083-2.662-1.557-2.662c-2.212,0-4.056,2.826-5.244,7.906
			C65.984,27.282,65.82,27.978,65.574,29.124z"/>
		<path style="fill:#153962;" d="M92.362,16.631c4.466,0,7.498,2.745,7.498,7.291c0,7.704-5.981,15.488-13.274,15.488
			c-4.507,0-7.497-2.87-7.497-7.621c0-3.975,1.393-7.537,3.974-10.57C85.603,18.393,88.798,16.631,92.362,16.631z M91.134,19.661
			c-3.646,0-6.022,7.868-6.022,12.577c0,2.418,0.737,4.181,2.704,4.181c3.605,0,5.941-7.785,5.941-12.497
			C93.756,21.507,93.1,19.661,91.134,19.661z"/>
	</g>
</g>
<g>
	<g>
		<path style="fill:#EF4136;" d="M180.886,12.389c0,0.573-0.106,1.11-0.319,1.609c-0.214,0.5-0.505,0.934-0.875,1.299
			c-0.371,0.368-0.808,0.659-1.311,0.87c-0.503,0.215-1.042,0.321-1.615,0.321c-0.594,0-1.141-0.104-1.641-0.309
			c-0.5-0.208-0.93-0.49-1.29-0.85c-0.36-0.36-0.642-0.788-0.844-1.284s-0.304-1.043-0.304-1.637c0-0.573,0.106-1.108,0.32-1.604
			c0.212-0.496,0.504-0.927,0.875-1.296c0.371-0.365,0.806-0.653,1.306-0.864c0.5-0.211,1.04-0.314,1.62-0.314
			c0.594,0,1.141,0.101,1.641,0.306c0.5,0.202,0.93,0.481,1.289,0.844c0.36,0.359,0.642,0.787,0.845,1.283
			S180.886,11.8,180.886,12.389z M179.943,12.45c0-0.496-0.079-0.947-0.236-1.352c-0.158-0.407-0.376-0.755-0.655-1.043
			c-0.28-0.291-0.612-0.514-0.996-0.665c-0.385-0.154-0.801-0.232-1.248-0.232c-0.483,0-0.917,0.084-1.306,0.253
			c-0.388,0.166-0.722,0.398-1.001,0.692c-0.279,0.291-0.495,0.633-0.645,1.021c-0.151,0.387-0.226,0.803-0.226,1.242
			c0,0.49,0.079,0.937,0.236,1.343c0.158,0.404,0.376,0.752,0.655,1.043c0.28,0.288,0.612,0.515,0.996,0.672
			c0.385,0.157,0.801,0.234,1.248,0.234c0.482,0,0.919-0.086,1.311-0.255c0.392-0.173,0.725-0.404,1.001-0.692
			c0.276-0.291,0.49-0.63,0.64-1.02C179.867,13.307,179.943,12.891,179.943,12.45z M178.706,14.37c0,0.026-0.005,0.054-0.016,0.077
			c-0.01,0.026-0.037,0.045-0.079,0.054c-0.042,0.012-0.102,0.021-0.178,0.026c-0.078,0.006-0.182,0.009-0.315,0.009
			c-0.119,0-0.215-0.003-0.289-0.009c-0.073-0.006-0.133-0.021-0.178-0.035c-0.045-0.019-0.08-0.045-0.104-0.075
			c-0.024-0.032-0.044-0.074-0.058-0.13l-0.22-0.726c-0.084-0.258-0.184-0.437-0.299-0.537c-0.116-0.104-0.289-0.155-0.519-0.155
			h-0.283v1.468c0,0.077-0.029,0.131-0.089,0.158c-0.06,0.029-0.198,0.041-0.415,0.041s-0.36-0.012-0.43-0.041
			c-0.07-0.027-0.104-0.081-0.104-0.158v-3.764c0-0.152,0.039-0.273,0.115-0.36c0.077-0.089,0.192-0.13,0.346-0.13h1.207
			c0.279,0,0.526,0.023,0.739,0.071c0.213,0.05,0.395,0.127,0.545,0.231c0.15,0.104,0.264,0.234,0.341,0.393
			c0.077,0.157,0.115,0.344,0.115,0.562c0,0.335-0.09,0.597-0.272,0.781c-0.182,0.184-0.426,0.314-0.734,0.392
			c0.168,0.057,0.325,0.151,0.472,0.285c0.147,0.131,0.272,0.33,0.377,0.598l0.251,0.671
			C178.681,14.228,178.706,14.328,178.706,14.37z M177.405,11.464c0-0.074-0.01-0.148-0.031-0.22
			c-0.021-0.068-0.061-0.131-0.12-0.181c-0.06-0.054-0.138-0.096-0.236-0.122c-0.098-0.027-0.22-0.042-0.367-0.042h-0.482v1.174
			h0.461c0.293,0,0.496-0.057,0.608-0.166C177.349,11.794,177.405,11.648,177.405,11.464z"/>
	</g>
</g>
</svg>
