<?xml version="1.0" encoding="iso-8859-1"?>
<!-- Generator: Adobe Illustrator 16.0.0, SVG Export Plug-In . SVG Version: 6.00 Build 0)  -->
<!DOCTYPE svg PUBLIC "-//W3C//DTD SVG 1.1//EN" "http://www.w3.org/Graphics/SVG/1.1/DTD/svg11.dtd">
<svg version="1.1" id="Layer_1" xmlns="http://www.w3.org/2000/svg" xmlns:xlink="http://www.w3.org/1999/xlink" x="0px" y="0px"
	 width="174px" height="47px" viewBox="0 0 174 47" style="enable-background:new 0 0 174 47;" xml:space="preserve">
<g>
	
		<line style="fill:#EF4136;stroke:#EF4136;stroke-width:1.5;stroke-linecap:round;stroke-miterlimit:10;" x1="4.575" y1="40.676" x2="92.45" y2="40.676"/>
	
		<line style="fill:#EF4136;stroke:#EF4136;stroke-width:1.5;stroke-linecap:round;stroke-miterlimit:10;" x1="108.169" y1="40.676" x2="160.085" y2="40.676"/>
	<g>
		<path style="fill:#EF4136;" d="M116.109,23.848c0,1.622-0.175,3.08-0.526,4.372s-0.866,2.389-1.547,3.289
			s-1.523,1.595-2.527,2.083c-1.003,0.489-2.152,0.732-3.443,0.732c-0.55,0-1.059-0.056-1.526-0.167
			c-0.468-0.108-0.925-0.281-1.372-0.514c-0.446-0.233-0.89-0.529-1.33-0.887c-0.44-0.358-0.908-0.777-1.403-1.258v9.28
			c0,0.11-0.028,0.207-0.083,0.289c-0.055,0.083-0.144,0.151-0.268,0.207c-0.124,0.055-0.296,0.096-0.516,0.125
			c-0.22,0.027-0.502,0.04-0.845,0.04c-0.33,0-0.605-0.013-0.825-0.04c-0.22-0.028-0.395-0.07-0.526-0.125
			c-0.131-0.055-0.22-0.124-0.268-0.207c-0.048-0.082-0.072-0.178-0.072-0.289V14.855c0-0.125,0.021-0.224,0.062-0.3
			c0.042-0.074,0.124-0.14,0.248-0.196c0.124-0.053,0.282-0.092,0.474-0.113s0.426-0.031,0.701-0.031
			c0.289,0,0.526,0.01,0.711,0.031c0.186,0.021,0.34,0.06,0.464,0.113c0.124,0.057,0.209,0.122,0.258,0.196
			c0.048,0.076,0.072,0.175,0.072,0.3v2.495c0.564-0.577,1.107-1.079,1.63-1.505c0.522-0.427,1.048-0.78,1.578-1.063
			c0.529-0.282,1.073-0.495,1.629-0.639c0.557-0.146,1.145-0.217,1.763-0.217c1.348,0,2.496,0.261,3.444,0.783
			c0.949,0.523,1.722,1.238,2.32,2.146c0.598,0.907,1.034,1.964,1.31,3.166C115.971,21.224,116.109,22.5,116.109,23.848z
			 M112.582,24.238c0-0.948-0.073-1.866-0.218-2.752c-0.146-0.887-0.395-1.674-0.747-2.362c-0.353-0.686-0.827-1.237-1.421-1.649
			c-0.595-0.413-1.335-0.619-2.221-0.619c-0.442,0-0.878,0.065-1.307,0.196s-0.865,0.337-1.307,0.62
			c-0.443,0.281-0.906,0.652-1.39,1.112c-0.484,0.462-0.996,1.028-1.536,1.703v7.383c0.941,1.141,1.833,2.014,2.677,2.619
			c0.844,0.604,1.729,0.908,2.656,0.908c0.858,0,1.594-0.207,2.21-0.62c0.616-0.412,1.113-0.963,1.494-1.649
			c0.38-0.688,0.661-1.458,0.84-2.31S112.582,25.104,112.582,24.238z"/>
		<path style="fill:#EF4136;" d="M123.274,33.416c0,0.11-0.028,0.204-0.083,0.279c-0.055,0.076-0.144,0.141-0.268,0.195
			c-0.124,0.055-0.296,0.096-0.516,0.125c-0.22,0.027-0.502,0.042-0.845,0.042c-0.33,0-0.605-0.015-0.825-0.042
			c-0.22-0.028-0.395-0.07-0.526-0.125c-0.131-0.054-0.22-0.119-0.268-0.195s-0.072-0.169-0.072-0.279V5.864
			c0-0.11,0.024-0.207,0.072-0.29c0.048-0.082,0.137-0.15,0.268-0.205c0.131-0.055,0.306-0.097,0.526-0.125
			c0.22-0.027,0.495-0.042,0.825-0.042c0.343,0,0.625,0.015,0.845,0.042c0.22,0.028,0.392,0.07,0.516,0.125
			c0.124,0.055,0.213,0.123,0.268,0.205c0.055,0.083,0.083,0.18,0.083,0.29V33.416z"/>
		<path style="fill:#EF4136;" d="M144.114,33.416c0,0.11-0.024,0.204-0.072,0.279s-0.134,0.141-0.258,0.195
			c-0.123,0.055-0.285,0.096-0.484,0.125c-0.2,0.027-0.443,0.042-0.732,0.042c-0.316,0-0.574-0.015-0.773-0.042
			c-0.2-0.028-0.358-0.07-0.475-0.125c-0.117-0.054-0.196-0.119-0.237-0.195c-0.042-0.076-0.062-0.169-0.062-0.279v-2.454
			c-1.059,1.169-2.104,2.022-3.135,2.558c-1.031,0.537-2.076,0.804-3.134,0.804c-1.237,0-2.279-0.207-3.125-0.618
			c-0.845-0.413-1.529-0.973-2.051-1.682c-0.523-0.708-0.897-1.533-1.125-2.475c-0.226-0.942-0.34-2.086-0.34-3.433V14.855
			c0-0.11,0.023-0.203,0.072-0.279c0.048-0.076,0.141-0.144,0.279-0.206c0.137-0.061,0.316-0.103,0.536-0.124
			s0.496-0.031,0.825-0.031s0.604,0.01,0.825,0.031c0.22,0.021,0.395,0.063,0.526,0.124c0.13,0.062,0.223,0.13,0.278,0.206
			c0.055,0.076,0.083,0.169,0.083,0.279v10.806c0,1.086,0.08,1.957,0.238,2.608c0.157,0.654,0.398,1.211,0.722,1.671
			c0.323,0.46,0.732,0.818,1.227,1.073c0.495,0.254,1.072,0.382,1.732,0.382c0.852,0,1.702-0.303,2.547-0.908
			c0.845-0.605,1.743-1.492,2.691-2.661V14.855c0-0.11,0.024-0.203,0.073-0.279c0.048-0.076,0.141-0.144,0.278-0.206
			c0.138-0.061,0.313-0.103,0.526-0.124c0.213-0.021,0.492-0.031,0.836-0.031c0.33,0,0.604,0.01,0.825,0.031
			c0.219,0.021,0.392,0.063,0.516,0.124c0.123,0.062,0.216,0.13,0.278,0.206c0.062,0.076,0.092,0.169,0.092,0.279V33.416z"/>
		<path style="fill:#EF4136;" d="M160.706,28.364c0,0.948-0.175,1.794-0.526,2.536c-0.351,0.743-0.849,1.37-1.495,1.878
			c-0.647,0.508-1.417,0.895-2.31,1.154c-0.894,0.261-1.877,0.392-2.95,0.392c-0.659,0-1.289-0.052-1.886-0.154
			c-0.598-0.104-1.134-0.235-1.609-0.392c-0.474-0.158-0.876-0.323-1.207-0.495c-0.33-0.172-0.57-0.327-0.722-0.463
			c-0.152-0.138-0.262-0.331-0.33-0.578c-0.069-0.248-0.103-0.584-0.103-1.01c0-0.262,0.013-0.481,0.042-0.661
			c0.027-0.178,0.062-0.322,0.103-0.432c0.042-0.11,0.1-0.189,0.175-0.238c0.076-0.047,0.162-0.071,0.258-0.071
			c0.151,0,0.375,0.092,0.67,0.278c0.296,0.186,0.66,0.389,1.093,0.609c0.434,0.22,0.946,0.422,1.537,0.608
			c0.591,0.186,1.272,0.277,2.042,0.277c0.577,0,1.1-0.061,1.567-0.184c0.467-0.125,0.873-0.306,1.217-0.546
			c0.344-0.241,0.608-0.547,0.794-0.918c0.186-0.371,0.278-0.811,0.278-1.32c0-0.521-0.134-0.961-0.402-1.319
			c-0.268-0.358-0.622-0.674-1.062-0.949c-0.44-0.275-0.935-0.519-1.485-0.732c-0.55-0.212-1.117-0.435-1.701-0.67
			c-0.584-0.233-1.155-0.498-1.712-0.793c-0.557-0.295-1.056-0.657-1.495-1.083c-0.44-0.426-0.794-0.934-1.063-1.525
			s-0.402-1.3-0.402-2.125c0-0.729,0.141-1.426,0.423-2.093c0.281-0.667,0.704-1.252,1.269-1.754c0.563-0.5,1.268-0.903,2.114-1.206
			c0.845-0.302,1.832-0.453,2.959-0.453c0.495,0,0.99,0.042,1.485,0.123c0.495,0.083,0.942,0.186,1.34,0.309
			c0.399,0.125,0.739,0.259,1.021,0.403c0.281,0.144,0.495,0.272,0.639,0.382s0.241,0.207,0.289,0.288
			c0.047,0.083,0.083,0.175,0.104,0.279c0.02,0.103,0.041,0.23,0.062,0.382c0.021,0.151,0.031,0.335,0.031,0.556
			c0,0.234-0.011,0.437-0.031,0.609c-0.021,0.172-0.055,0.313-0.104,0.423s-0.107,0.188-0.175,0.236
			c-0.069,0.049-0.144,0.073-0.227,0.073c-0.124,0-0.303-0.076-0.536-0.228c-0.234-0.151-0.536-0.312-0.908-0.484
			c-0.371-0.172-0.808-0.333-1.31-0.484c-0.502-0.152-1.076-0.228-1.722-0.228c-0.577,0-1.086,0.065-1.526,0.196
			c-0.44,0.131-0.801,0.316-1.083,0.557c-0.281,0.241-0.495,0.526-0.64,0.855c-0.144,0.33-0.216,0.688-0.216,1.073
			c0,0.536,0.137,0.986,0.412,1.35c0.275,0.364,0.632,0.685,1.073,0.96c0.439,0.275,0.941,0.521,1.505,0.741s1.137,0.447,1.722,0.68
			c0.584,0.235,1.162,0.497,1.733,0.785c0.57,0.288,1.076,0.639,1.515,1.052c0.441,0.413,0.794,0.908,1.063,1.485
			C160.571,26.878,160.706,27.566,160.706,28.364z"/>
	</g>
	<g>
		<path style="fill:#FFFFFF;" d="M17.804,14.395c4.193,0,7.039,2.578,7.039,6.846c0,7.231-5.615,14.539-12.461,14.539
			c-4.231,0-7.039-2.692-7.039-7.155c0-3.73,1.308-7.075,3.731-9.922C11.458,16.048,14.458,14.395,17.804,14.395z M16.65,17.241
			c-3.423,0-5.654,7.385-5.654,11.808c0,2.27,0.692,3.923,2.539,3.923c3.384,0,5.577-7.308,5.577-11.731
			C19.112,18.972,18.496,17.241,16.65,17.241z"/>
		<path style="fill:#FFFFFF;" d="M34.463,18.626c0,0.77,0.385,1.462,1,2.231c1.654,2,3.346,3.807,3.346,6.615
			c0,4.615-4.231,8.191-8.884,8.191c-2.654,0-5.693-1.73-5.693-4.73c0-1.307,0.846-2.115,1.539-2.5
			c0.884,2.384,2.385,4.5,4.692,4.616c1.808,0,2.962-1,2.962-3.077c0-1.808-1.616-3.078-3.078-4.731
			c-1-1.191-1.538-2.692-1.538-4.192c0-4.961,5-7.116,9.423-7.116c1.385,0,1.962,0.271,2.193,1.154c0,0.77-0.346,1.462-1.5,2.27
			c-0.769-0.77-1.539-1.116-2.23-1.116C35.156,16.242,34.463,17.125,34.463,18.626z"/>
		<path style="fill:#FFFFFF;" d="M55.429,16.588c0,1.808-1.462,3.077-3.231,3.077c-0.77,0-1.116-0.039-1.808-0.039
			c-0.308,0-0.576,0-0.885,0.077c-0.384,1.847-0.846,3.923-1.384,5.961c-0.308,1.154-0.615,2.846-0.615,4.115
			c0.077,1.193,0.577,1.847,1.5,1.847c0.462,0,1.269-0.731,1.961-1.462c1.231-1.307,1.962-1.961,2.346-1.961
			c0.154,0,0.192,0.115,0.192,0.346c0,2.769-4.038,7-6.808,7c-3.192,0-4.461-1.924-4.461-5c0-0.77,0.115-1.576,0.23-2.384
			c0.385-2.27,0.501-2.923,1.27-6.116c0.846-3.231,1.73-7.192,1.73-9.423c0-0.731-0.076-1.346-0.422-2.116
			c1.616-0.922,2.923-1.269,4.154-1.269c1.23,0,1.884,0.731,1.884,1.884c0-0.114-0.192,1.73-0.922,5.501h1.615
			c1.154,0,2.346-0.077,3.654-0.271C55.429,16.433,55.429,16.511,55.429,16.588z"/>
		<path style="fill:#FFFFFF;" d="M71.509,29.356c0.538,0.963,0.461,2.154-0.231,3.04c-0.653,0.807-1.615,1.538-2.885,2.077
			c-1.923,0.884-3.922,1.308-6.077,1.308c-4.5,0-7.077-1.961-7.27-5.923c-0.192-3.962,1.192-7.847,3.846-10.73
			c2.577-3.078,5.885-4.731,9.308-4.731c3.231,0,4.77,1.385,4.731,4c0,2.615-3.384,5.962-8.577,7.807
			c-1.23,0.423-3.731,1.539-3.769,2.539c-0.039,0.924,0.076,1.73,0.422,2.231c0.846,1.23,2.231,1.96,3.692,1.769
			C67.433,32.473,69.509,31.28,71.509,29.356z M60.97,26.126c0.654-1.423,1.808-1.924,3.231-2.693
			c2.462-1.346,3.154-2.614,3.539-3.96c0.385-1.347-0.077-2.5-1.461-2.5c-2.077,0-3.808,2.653-4.923,7.423
			C61.355,24.396,61.201,25.049,60.97,26.126z"/>
		<path style="fill:#FFFFFF;" d="M86.129,14.395c4.193,0,7.039,2.578,7.039,6.846c0,7.231-5.615,14.539-12.461,14.539
			c-4.231,0-7.039-2.692-7.039-7.155c0-3.73,1.308-7.075,3.731-9.922C79.784,16.048,82.783,14.395,86.129,14.395z M84.976,17.241
			c-3.423,0-5.654,7.385-5.654,11.808c0,2.27,0.692,3.923,2.539,3.923c3.384,0,5.577-7.308,5.577-11.731
			C87.438,18.972,86.822,17.241,84.976,17.241z"/>
	</g>
	<g>
		<g>
			<path style="fill:#EF4136;" d="M167.62,9.445c0,0.538-0.1,1.042-0.3,1.511c-0.201,0.47-0.475,0.876-0.822,1.223
				c-0.349,0.345-0.759,0.617-1.232,0.817c-0.472,0.201-0.978,0.3-1.517,0.3c-0.558,0-1.072-0.097-1.541-0.291
				c-0.47-0.193-0.874-0.459-1.211-0.798c-0.338-0.337-0.603-0.74-0.793-1.207c-0.19-0.466-0.286-0.978-0.286-1.536
				c0-0.538,0.1-1.04,0.301-1.507c0.2-0.466,0.474-0.872,0.822-1.216c0.348-0.345,0.757-0.617,1.226-0.813
				c0.47-0.198,0.977-0.296,1.521-0.296c0.559,0,1.072,0.095,1.542,0.285c0.469,0.19,0.873,0.455,1.21,0.793
				c0.339,0.339,0.603,0.74,0.793,1.206C167.525,8.385,167.62,8.893,167.62,9.445z M166.734,9.505c0-0.467-0.073-0.89-0.221-1.272
				c-0.148-0.38-0.354-0.707-0.616-0.979c-0.263-0.273-0.575-0.481-0.936-0.625c-0.361-0.146-0.751-0.217-1.172-0.217
				c-0.453,0-0.862,0.079-1.226,0.236c-0.365,0.158-0.678,0.375-0.941,0.649c-0.262,0.276-0.464,0.597-0.605,0.961
				s-0.212,0.753-0.212,1.166c0,0.46,0.074,0.881,0.221,1.261c0.148,0.38,0.353,0.708,0.616,0.98
				c0.262,0.272,0.574,0.483,0.935,0.63c0.361,0.149,0.752,0.222,1.172,0.222c0.453,0,0.864-0.081,1.231-0.241
				c0.368-0.161,0.681-0.377,0.94-0.651c0.259-0.272,0.46-0.591,0.601-0.955S166.734,9.917,166.734,9.505z M165.572,11.307
				c0,0.027-0.004,0.051-0.014,0.074c-0.011,0.022-0.035,0.039-0.074,0.049c-0.04,0.009-0.095,0.018-0.167,0.023
				c-0.073,0.007-0.17,0.011-0.295,0.011c-0.112,0-0.202-0.003-0.271-0.011c-0.069-0.006-0.125-0.018-0.167-0.034
				c-0.043-0.016-0.076-0.039-0.099-0.068s-0.041-0.071-0.054-0.123l-0.207-0.681c-0.079-0.242-0.172-0.411-0.281-0.506
				s-0.271-0.143-0.487-0.143h-0.266v1.378c0,0.073-0.028,0.122-0.084,0.147c-0.056,0.027-0.186,0.041-0.389,0.041
				c-0.204,0-0.338-0.014-0.404-0.041c-0.065-0.025-0.098-0.074-0.098-0.147V7.741c0-0.144,0.036-0.258,0.108-0.34
				c0.072-0.082,0.181-0.124,0.325-0.124h1.133c0.263,0,0.494,0.024,0.694,0.07s0.371,0.117,0.512,0.215
				c0.141,0.1,0.248,0.223,0.32,0.37c0.073,0.147,0.108,0.324,0.108,0.527c0,0.315-0.085,0.56-0.256,0.734
				c-0.17,0.174-0.4,0.297-0.689,0.368c0.157,0.054,0.305,0.141,0.443,0.266c0.138,0.125,0.256,0.312,0.354,0.562l0.237,0.631
				C165.549,11.171,165.572,11.267,165.572,11.307z M164.351,8.578c0-0.071-0.01-0.141-0.03-0.207
				c-0.02-0.065-0.057-0.123-0.113-0.172c-0.056-0.049-0.13-0.086-0.222-0.113s-0.207-0.04-0.345-0.04h-0.452v1.104h0.433
				c0.275,0,0.466-0.052,0.571-0.157C164.298,8.887,164.351,8.749,164.351,8.578z"/>
		</g>
	</g>
</g>
</svg>
