<?xml version="1.0" encoding="iso-8859-1"?>
<!-- Generator: Adobe Illustrator 16.0.0, SVG Export Plug-In . SVG Version: 6.00 Build 0)  -->
<!DOCTYPE svg PUBLIC "-//W3C//DTD SVG 1.1//EN" "http://www.w3.org/Graphics/SVG/1.1/DTD/svg11.dtd">
<svg version="1.1" id="Layer_1" xmlns="http://www.w3.org/2000/svg" xmlns:xlink="http://www.w3.org/1999/xlink" x="0px" y="0px"
	 width="65.625px" height="33.75px" viewBox="0 0 65.625 33.75" style="enable-background:new 0 0 65.625 33.75;"
	 xml:space="preserve">
<rect x="3.838" y="26.324" style="fill:#EA2335;" width="57.443" height="3.348"/>
<path style="fill:#06080A;" d="M18.91,3.831v7.102c0,0.847,0,1.498,0.529,2.253c0.391,0.561,1.131,0.94,1.953,0.94
	c0.805,0,1.541-0.361,1.924-0.924c0.528-0.74,0.528-1.391,0.528-2.269V3.831h1.24v7.102c0.017,1.302-0.153,2.587-1.27,3.449
	c-0.621,0.529-1.453,0.85-2.422,0.85c-0.787,0-1.771-0.229-2.466-0.85c-1.184-0.953-1.274-2.225-1.274-3.449V3.831H18.91z"/>
<path style="fill:#06080A;" d="M31.055,11.915c0.176,1.863,1.537,2.258,2.236,2.258c1.162,0,2.24-0.897,2.24-2.139
	c0-1.57-1.348-1.92-2.65-2.344c-0.908-0.271-2.859-0.847-2.859-2.966c-0.031-1.981,1.617-3.086,3.326-3.086
	c1.396,0,3,0.771,3.182,2.892h-1.24c-0.135-0.73-0.502-1.834-1.984-1.834c-1.117,0-2.043,0.758-2.043,1.922
	c-0.012,1.361,1.094,1.697,2.785,2.27c1.061,0.406,2.725,1,2.725,3.058c0,1.832-1.373,3.285-3.467,3.285
	c-1.877,0-3.437-1.179-3.512-3.316H31.055z"/>
<polygon style="fill:#06080A;" points="43.22,4.94 40.467,4.94 40.467,3.831 47.251,3.831 47.251,4.94 44.479,4.94 44.479,15.035 
	43.22,15.035 "/>
<path style="fill:#06080A;" d="M50.218,9.465c0-3.453,2.678-5.828,5.844-5.828c3.285,0,5.84,2.512,5.84,5.795
	c0,3.285-2.543,5.799-5.84,5.799c-3.318,0-5.844-2.557-5.844-5.752V9.465z M51.472,9.432c0,2.635,1.982,4.693,4.602,4.693
	c2.65,0,4.588-2.132,4.588-4.693c0-2.557-1.938-4.689-4.6-4.689c-2.637,0-4.59,2.085-4.59,4.675V9.432z"/>
<path style="fill:#06080A;" d="M5.497,17.269c0.887,0,1.305,0.102,1.694,0.4c0.418,0.324,0.67,0.908,0.67,1.494
	c0,0.598-0.262,1.197-0.647,1.496c-0.412,0.324-0.836,0.424-1.654,0.424H4.547v2.473H3.838v-6.287H5.497z M4.547,20.466h1.004
	c0.523,0,0.848-0.062,1.16-0.268c0.275-0.178,0.471-0.576,0.471-1.018c0-0.451-0.196-0.85-0.477-1.028
	c-0.312-0.204-0.637-0.261-1.176-0.261H4.547V20.466z"/>
<polygon style="fill:#06080A;" points="11.141,17.269 14.623,17.269 14.623,17.892 11.836,17.892 11.836,20.073 14.601,20.073 
	14.601,20.694 11.836,20.694 11.836,22.937 14.623,22.937 14.623,23.556 11.141,23.556 "/>
<path style="fill:#06080A;" d="M18.221,17.269h1.641c0.986,0,1.443,0.119,1.765,0.324c0.51,0.305,0.858,0.977,0.858,1.686
	c0.007,0.43-0.11,0.879-0.373,1.234c-0.373,0.512-0.825,0.631-1.399,0.691l1.561,2.352h-0.766l-1.775-2.744h0.203
	c0.443,0,1.053-0.006,1.394-0.324c0.33-0.322,0.477-0.703,0.477-1.152c0-0.467-0.231-0.961-0.625-1.217
	c-0.311-0.203-0.701-0.227-1.272-0.227h-0.982v5.664h-0.707V17.269z"/>
<polygon style="fill:#06080A;" points="25.811,17.269 29.012,17.269 29.012,17.892 26.516,17.892 26.516,20.099 28.995,20.099 
	28.995,20.726 26.516,20.726 26.516,23.556 25.811,23.556 "/>
<polygon style="fill:#06080A;" points="32.498,17.269 35.98,17.269 35.98,17.892 33.193,17.892 33.193,20.073 35.961,20.073 
	35.961,20.694 33.193,20.694 33.193,22.937 35.98,22.937 35.98,23.556 32.498,23.556 "/>
<path style="fill:#06080A;" d="M45.521,21.866c-0.406,0.967-1.502,1.801-2.889,1.801c-1.864,0-3.278-1.436-3.278-3.254
	c0-1.795,1.385-3.256,3.267-3.256c1.559,0,2.533,1.039,2.9,1.838h-0.756c-0.211-0.377-0.926-1.215-2.145-1.215
	c-1.466,0-2.567,1.162-2.567,2.625c0,1.486,1.107,2.641,2.567,2.641c1.318,0,1.992-0.941,2.145-1.18H45.521z"/>
<polygon style="fill:#06080A;" points="49.974,17.892 48.423,17.892 48.423,17.269 52.231,17.269 52.231,17.892 50.677,17.892 
	50.677,23.556 49.974,23.556 "/>
<path style="fill:#06080A;" d="M54.741,20.427c0-1.934,1.506-3.27,3.281-3.27c1.846,0,3.283,1.412,3.283,3.256
	c0,1.842-1.432,3.254-3.283,3.254c-1.861,0-3.281-1.436-3.281-3.23V20.427z M55.446,20.413c0,1.479,1.111,2.633,2.586,2.633
	c1.486,0,2.572-1.199,2.572-2.633c0-1.437-1.086-2.633-2.582-2.633c-1.479,0-2.576,1.17-2.576,2.625V20.413z"/>
<g>
	<path style="fill:#06080A;" d="M63.848,4.039c0,0.651-0.523,1.168-1.189,1.168c-0.665,0-1.196-0.517-1.196-1.168
		s0.531-1.161,1.204-1.161C63.324,2.877,63.848,3.387,63.848,4.039z M61.76,4.039c0,0.517,0.389,0.927,0.906,0.927
		c0.502,0.007,0.885-0.411,0.885-0.92c0-0.517-0.383-0.935-0.899-0.935C62.148,3.111,61.76,3.529,61.76,4.039z M62.475,4.64h-0.27
		V3.479c0.106-0.014,0.256-0.035,0.446-0.035c0.22,0,0.319,0.035,0.396,0.092c0.071,0.05,0.12,0.135,0.12,0.248
		c0,0.142-0.105,0.233-0.24,0.276v0.014c0.113,0.035,0.17,0.127,0.205,0.283c0.035,0.177,0.064,0.241,0.085,0.283h-0.283
		c-0.035-0.042-0.057-0.142-0.092-0.283c-0.021-0.12-0.092-0.177-0.241-0.177h-0.127V4.64z M62.481,3.989h0.128
		c0.148,0,0.269-0.05,0.269-0.17c0-0.106-0.077-0.177-0.247-0.177c-0.071,0-0.121,0.007-0.149,0.014V3.989z"/>
</g>
<path style="fill:#06080A;" d="M11.721,9.448c0.258-0.135,0.486-0.334,0.684-0.6C12.803,8.323,13.018,7.645,13,6.944
	c0-1.082-0.552-2.135-1.367-2.613c-0.578-0.354-1.379-0.5-2.761-0.5H3.838v11.216h5.034c1.382,0,2.335-0.079,3.117-0.497
	c0.84-0.448,1.455-1.461,1.455-2.543c0.015-0.704-0.127-1.368-0.711-1.979C12.362,9.643,11.789,9.439,11.721,9.448 M10.018,9.532
	c0.52,0.158,1.08,0.402,1.33,0.627c0.455,0.432,0.68,1.053,0.68,1.697c0,0.668-0.305,1.34-0.821,1.67
	c-0.427,0.268-1.158,0.318-2.056,0.318H5.207V5.036h3.741c0.898,0,1.429,0.049,1.853,0.316c0.522,0.328,0.875,1.004,0.875,1.67
	c0,0.645-0.221,1.17-0.678,1.596c-0.224,0.205-0.601,0.477-1.001,0.641"/>
<rect x="3.838" y="27.326" style="fill:#9A0E1C;" width="57.443" height="2.796"/>
</svg>
